<?xml version="1.0" encoding="UTF-8" standalone="no"?>
<svg
   xmlns:dc="http://purl.org/dc/elements/1.1/"
   xmlns:cc="http://creativecommons.org/ns#"
   xmlns:rdf="http://www.w3.org/1999/02/22-rdf-syntax-ns#"
   xmlns:svg="http://www.w3.org/2000/svg"
   xmlns="http://www.w3.org/2000/svg"
   xmlns:sodipodi="http://sodipodi.sourceforge.net/DTD/sodipodi-0.dtd"
   xmlns:inkscape="http://www.inkscape.org/namespaces/inkscape"
   inkscape:version="1.0 (4035a4fb49, 2020-05-01)"
   sodipodi:docname="hudbg1.svg"
   id="svg54"
   version="1.1"
   viewBox="0 0 112.468 112.468"
   height="112.468mm"
   width="112.468mm">
  <sodipodi:namedview
     inkscape:current-layer="svg54"
     inkscape:window-maximized="1"
     inkscape:window-y="-8"
     inkscape:window-x="-8"
     inkscape:cy="212.53796"
     inkscape:cx="212.53796"
     inkscape:zoom="1.9996428"
     showgrid="false"
     id="namedview99"
     inkscape:window-height="1017"
     inkscape:window-width="1920"
     inkscape:pageshadow="2"
     inkscape:pageopacity="0"
     guidetolerance="10"
     gridtolerance="10"
     objecttolerance="10"
     borderopacity="1"
     bordercolor="#666666"
     pagecolor="#ffffff" />
  <defs
     id="defs48">
    <inkscape:path-effect
       message="Use fill-rule evenodd on &lt;b&gt;fill and stroke&lt;/b&gt; dialog if no flatten result after convert clip to paths."
       hide_clip="false"
       flatten="false"
       inverse="true"
       lpeversion="1"
       is_visible="true"
       id="path-effect952"
       effect="powerclip" />
    <inkscape:path-effect
       message="Use fill-rule evenodd on &lt;b&gt;fill and stroke&lt;/b&gt; dialog if no flatten result after convert clip to paths."
       hide_clip="false"
       flatten="false"
       inverse="true"
       lpeversion="1"
       is_visible="true"
       id="path-effect934"
       effect="powerclip" />
    <clipPath
       clipPathUnits="userSpaceOnUse"
       id="clipEmfPath1">
      <path
         d="M 0,0 H 425.54457 V 425.54457 H 0 Z"
         id="path56" />
    </clipPath>
    <pattern
       id="EMFhbasepattern"
       patternUnits="userSpaceOnUse"
       width="6"
       height="6"
       x="0"
       y="0" />
    <clipPath
       clipPathUnits="userSpaceOnUse"
       id="clipEmfPath1-8">
      <path
         d="M 0,0 L 425.54457,0 L 425.54457,425.54457 L 0,425.54457 z"
         id="path78" />
    </clipPath>
    <pattern
       id="EMFhbasepattern-6"
       patternUnits="userSpaceOnUse"
       width="6"
       height="6"
       x="0"
       y="0" />
    <clipPath
       clipPathUnits="userSpaceOnUse"
       id="clipEmfPath1-2">
      <path
         d="M 0,0 L 425.54457,0 L 425.54457,425.54457 L 0,425.54457 z"
         id="path96" />
    </clipPath>
    <pattern
       id="EMFhbasepattern-8"
       patternUnits="userSpaceOnUse"
       width="6"
       height="6"
       x="0"
       y="0" />
    <clipPath
       clipPathUnits="userSpaceOnUse"
       id="clipEmfPath1-4">
      <path
         d="M 0,0 L 388.98898,0 L 388.98898,389.9263 L 0,389.9263 z"
         id="path114" />
    </clipPath>
    <pattern
       id="EMFhbasepattern-1"
       patternUnits="userSpaceOnUse"
       width="6"
       height="6"
       x="0"
       y="0" />
    <clipPath
       clipPathUnits="userSpaceOnUse"
       id="clipEmfPath1-3">
      <path
         d="M 0,0 L 230.58142,0 L 230.58142,226.83213 L 0,226.83213 z"
         id="path132" />
    </clipPath>
    <pattern
       id="EMFhbasepattern-0"
       patternUnits="userSpaceOnUse"
       width="6"
       height="6"
       x="0"
       y="0" />
    <clipPath
       clipPathUnits="userSpaceOnUse"
       id="clipEmfPath1-9">
      <path
         d="M 0,0 L 265.26236,0 L 265.26236,266.19969 L 0,266.19969 z"
         id="path153" />
    </clipPath>
    <pattern
       id="EMFhbasepattern-3"
       patternUnits="userSpaceOnUse"
       width="6"
       height="6"
       x="0"
       y="0" />
    <clipPath
       clipPathUnits="userSpaceOnUse"
       id="clipEmfPath1-34">
      <path
         d="M 0,0 L 230.58142,0 L 230.58142,226.83213 L 0,226.83213 z"
         id="path171" />
    </clipPath>
    <pattern
       id="EMFhbasepattern-9"
       patternUnits="userSpaceOnUse"
       width="6"
       height="6"
       x="0"
       y="0" />
    <clipPath
       clipPathUnits="userSpaceOnUse"
       id="clipEmfPath1-1">
      <path
         d="M 14.997165,15.934488 L 17.809134,15.934488 L 17.809134,123.72661 L 14.997165,123.72661 z"
         id="path196" />
    </clipPath>
    <pattern
       id="EMFhbasepattern-33"
       patternUnits="userSpaceOnUse"
       width="6"
       height="6"
       x="0"
       y="0" />
    <clipPath
       clipPathUnits="userSpaceOnUse"
       id="clipEmfPath1-5">
      <path
         d="M 14.997165,14.997165 L 122.78929,14.997165 L 122.78929,17.809134 L 14.997165,17.809134 z"
         id="path214" />
    </clipPath>
    <pattern
       id="EMFhbasepattern-07"
       patternUnits="userSpaceOnUse"
       width="6"
       height="6"
       x="0"
       y="0" />
    <clipPath
       clipPathUnits="userSpaceOnUse"
       id="clipEmfPath1-27">
      <path
         d="M 0,0 L 15.934488,0 L 15.934488,15.934488 L 0,15.934488 z"
         id="path232" />
    </clipPath>
    <pattern
       id="EMFhbasepattern-4"
       patternUnits="userSpaceOnUse"
       width="6"
       height="6"
       x="0"
       y="0" />
    <clipPath
       clipPathUnits="userSpaceOnUse"
       id="clipEmfPath1-37">
      <path
         d="M 0,0 L 15.934488,0 L 15.934488,15.934488 L 0,15.934488 z"
         id="path250" />
    </clipPath>
    <pattern
       id="EMFhbasepattern-7"
       patternUnits="userSpaceOnUse"
       width="6"
       height="6"
       x="0"
       y="0" />
    <clipPath
       clipPathUnits="userSpaceOnUse"
       id="clipEmfPath1-6">
      <path
         d="M 0,0 L 15.934488,0 L 15.934488,15.934488 L 0,15.934488 z"
         id="path268" />
    </clipPath>
    <pattern
       id="EMFhbasepattern-40"
       patternUnits="userSpaceOnUse"
       width="6"
       height="6"
       x="0"
       y="0" />
    <clipPath
       clipPathUnits="userSpaceOnUse"
       id="clipEmfPath1-32">
      <path
         d="M 4.6866142,4.6866142 L 108.72945,4.6866142 L 108.72945,25.307717 L 4.6866142,25.307717 z"
         id="path286" />
    </clipPath>
    <pattern
       id="EMFhbasepattern-74"
       patternUnits="userSpaceOnUse"
       width="6"
       height="6"
       x="0"
       y="0" />
    <clipPath
       clipPathUnits="userSpaceOnUse"
       id="clipEmfPath1-41">
      <path
         d="M 4.6866142,4.6866142 L 5.623937,4.6866142 L 5.623937,11.247874 L 4.6866142,11.247874 z"
         id="path347" />
    </clipPath>
    <pattern
       id="EMFhbasepattern-91"
       patternUnits="userSpaceOnUse"
       width="6"
       height="6"
       x="0"
       y="0" />
    <clipPath
       clipPathUnits="userSpaceOnUse"
       id="clipEmfPath1-64">
      <path
         d="M 4.6866142,4.6866142 L 5.623937,4.6866142 L 5.623937,11.247874 L 4.6866142,11.247874 z"
         id="path365" />
    </clipPath>
    <pattern
       id="EMFhbasepattern-5"
       patternUnits="userSpaceOnUse"
       width="6"
       height="6"
       x="0"
       y="0" />
    <clipPath
       id="clipEmfPath1-32-4"
       clipPathUnits="userSpaceOnUse">
      <path
         id="path286-8"
         d="M 4.6866142,4.6866142 H 108.72945 V 25.307717 H 4.6866142 Z" />
    </clipPath>
    <clipPath
       id="clipPath410"
       clipPathUnits="userSpaceOnUse">
      <path
         id="path408"
         d="M 4.6866142,4.6866142 H 108.72945 V 25.307717 H 4.6866142 Z" />
    </clipPath>
    <clipPath
       id="clipPath414"
       clipPathUnits="userSpaceOnUse">
      <path
         id="path412"
         d="M 4.6866142,4.6866142 H 108.72945 V 25.307717 H 4.6866142 Z" />
    </clipPath>
    <clipPath
       id="clipPath418"
       clipPathUnits="userSpaceOnUse">
      <path
         id="path416"
         d="M 4.6866142,4.6866142 H 108.72945 V 25.307717 H 4.6866142 Z" />
    </clipPath>
    <clipPath
       id="clipPath422"
       clipPathUnits="userSpaceOnUse">
      <path
         id="path420"
         d="M 4.6866142,4.6866142 H 108.72945 V 25.307717 H 4.6866142 Z" />
    </clipPath>
    <clipPath
       id="clipPath426"
       clipPathUnits="userSpaceOnUse">
      <path
         id="path424"
         d="M 4.6866142,4.6866142 H 108.72945 V 25.307717 H 4.6866142 Z" />
    </clipPath>
    <clipPath
       id="clipPath430"
       clipPathUnits="userSpaceOnUse">
      <path
         id="path428"
         d="M 4.6866142,4.6866142 H 108.72945 V 25.307717 H 4.6866142 Z" />
    </clipPath>
    <clipPath
       id="clipPath434"
       clipPathUnits="userSpaceOnUse">
      <path
         id="path432"
         d="M 4.6866142,4.6866142 H 108.72945 V 25.307717 H 4.6866142 Z" />
    </clipPath>
    <clipPath
       id="clipEmfPath1-64-1"
       clipPathUnits="userSpaceOnUse">
      <path
         id="path365-5"
         d="M 4.6866142,4.6866142 H 5.623937 V 11.247874 H 4.6866142 Z" />
    </clipPath>
    <clipPath
       id="clipEmfPath1-27-6"
       clipPathUnits="userSpaceOnUse">
      <path
         id="path232-2"
         d="M 0,0 H 15.934488 V 15.934488 H 0 Z" />
    </clipPath>
    <clipPath
       clipPathUnits="userSpaceOnUse"
       id="clipEmfPath1-7">
      <path
         d="M 4.6866142,4.6866142 L 26.245039,4.6866142 L 26.245039,108.72945 L 4.6866142,108.72945 z"
         id="path541" />
    </clipPath>
    <pattern
       id="EMFhbasepattern-70"
       patternUnits="userSpaceOnUse"
       width="6"
       height="6"
       x="0"
       y="0" />
    <clipPath
       clipPathUnits="userSpaceOnUse"
       id="clipEmfPath1-45">
      <path
         d="M 0.93732283,0.93732283 L 134.97449,0.93732283 L 134.97449,31.868976 L 0.93732283,31.868976 z"
         id="path602" />
    </clipPath>
    <pattern
       id="EMFhbasepattern-49"
       patternUnits="userSpaceOnUse"
       width="6"
       height="6"
       x="0"
       y="0" />
    <pattern
       id="EMFhbasepattern-2"
       patternUnits="userSpaceOnUse"
       width="6"
       height="6"
       x="0"
       y="0" />
    <clipPath
       clipPathUnits="userSpaceOnUse"
       id="clipEmfPath1-58">
      <path
         d="M 14.997165,4.6866142 L 29.994331,4.6866142 L 29.994331,122.78929 L 14.997165,122.78929 z"
         id="path711" />
    </clipPath>
    <pattern
       id="EMFhbasepattern-23"
       patternUnits="userSpaceOnUse"
       width="6"
       height="6"
       x="0"
       y="0" />
    <clipPath
       clipPathUnits="userSpaceOnUse"
       id="clipEmfPath1-92">
      <path
         d="M 14.997165,0 L 44.991496,0 L 44.991496,134.03717 L 14.997165,134.03717 z"
         id="path788" />
    </clipPath>
    <pattern
       id="EMFhbasepattern-24"
       patternUnits="userSpaceOnUse"
       width="6"
       height="6"
       x="0"
       y="0" />
    <pattern
       id="EMFhbasepattern-42"
       patternUnits="userSpaceOnUse"
       width="6"
       height="6"
       x="0"
       y="0" />
    <pattern
       id="EMFhbasepattern-47"
       patternUnits="userSpaceOnUse"
       width="6"
       height="6"
       x="0"
       y="0" />
    <clipPath
       clipPathUnits="userSpaceOnUse"
       id="clipEmfPath1-0">
      <path
         d="M -5.623937,0 L 21.558425,0 L 21.558425,31.868976 L -5.623937,31.868976 z"
         id="path1015" />
    </clipPath>
    <pattern
       id="EMFhbasepattern-63"
       patternUnits="userSpaceOnUse"
       width="6"
       height="6"
       x="0"
       y="0" />
    <clipPath
       clipPathUnits="userSpaceOnUse"
       id="clipEmfPath1-57">
      <path
         d="M 0.93732283,14.997165 L 134.97449,14.997165 L 134.97449,45.928819 L 0.93732283,45.928819 z"
         id="path1102" />
    </clipPath>
    <pattern
       id="EMFhbasepattern-37"
       patternUnits="userSpaceOnUse"
       width="6"
       height="6"
       x="0"
       y="0" />
    <pattern
       id="EMFhbasepattern-48"
       patternUnits="userSpaceOnUse"
       width="6"
       height="6"
       x="0"
       y="0" />
    <clipPath
       id="clipPath930"
       clipPathUnits="userSpaceOnUse">
      <path
         d="M 93.93322,59.654076 A 35.042313,35.305939 0 0 1 59.671249,94.951259 35.042313,35.305939 0 0 1 23.883349,61.226111 35.042313,35.305939 0 0 1 56.55143,24.426906 35.042313,35.305939 0 0 1 93.794272,56.513124"
         sodipodi:arc-type="arc"
         sodipodi:open="true"
         sodipodi:end="6.1941037"
         sodipodi:start="0"
         sodipodi:ry="35.305939"
         sodipodi:rx="35.042313"
         sodipodi:cy="59.654076"
         sodipodi:cx="58.890907"
         sodipodi:type="arc"
         id="path932"
         style="display:none;opacity:1;fill:#ffffff;stroke-width:0.343593" />
      <path
         d="M -2.2900673,-1.5707986 H 120.21864 V 121.01128 H -2.2900673 Z M 94.146099,56.577865 A 35.321873,35.321873 0 0 0 56.606141,24.477166 35.321873,35.321873 0 0 0 23.677442,61.292978 35.321873,35.321873 0 0 0 59.75085,95.033348 35.321873,35.321873 0 0 0 94.286156,59.720234"
         class="powerclip"
         style="opacity:1;fill:#ffffff;stroke-width:0.343593"
         id="lpe_path-effect934" />
    </clipPath>
    <clipPath
       id="clipPath948"
       clipPathUnits="userSpaceOnUse">
      <path
         d="M 94.286156,59.720234 A 35.321873,35.321873 0 0 1 59.75085,95.033348 35.321873,35.321873 0 0 1 23.677442,61.292978 35.321873,35.321873 0 0 1 56.606141,24.477166 35.321873,35.321873 0 0 1 94.146099,56.577865"
         sodipodi:arc-type="arc"
         sodipodi:open="true"
         sodipodi:end="6.1941037"
         sodipodi:start="0"
         sodipodi:ry="35.321873"
         sodipodi:rx="35.321873"
         sodipodi:cy="59.720234"
         sodipodi:cx="58.964283"
         sodipodi:type="arc"
         id="path950"
         style="display:none;opacity:0.474194;fill:#000000;stroke-width:0.406598" />
      <path
         d="M -2.2900673,-1.5707986 H 120.21864 V 121.01128 H -2.2900673 Z M 94.146099,56.577865 A 35.321873,35.321873 0 0 0 56.606141,24.477166 35.321873,35.321873 0 0 0 23.677442,61.292978 35.321873,35.321873 0 0 0 59.75085,95.033348 35.321873,35.321873 0 0 0 94.286156,59.720234"
         class="powerclip"
         style="opacity:0.474194;fill:#000000;stroke-width:0.406598"
         id="lpe_path-effect952" />
    </clipPath>
  </defs>
  <metadata
     id="metadata51">
    <rdf:RDF>
      <cc:Work
         rdf:about="">
        <dc:format>image/svg+xml</dc:format>
        <dc:type
           rdf:resource="http://purl.org/dc/dcmitype/StillImage" />
        <dc:title />
      </cc:Work>
    </rdf:RDF>
  </metadata>
  <g
     inkscape:path-effect="#path-effect934;#path-effect952"
     clip-path="url(#clipPath948)"
     transform="translate(-2.7302855,-3.4862386)"
     id="layer1">
    <g
       id="g1647"
       transform="translate(-0.02612942,-0.00134189)">
      <path
         inkscape:original-d="m 16.66021,115.42321 c -5.338087,-1.44473 -9.5521811,-4.88131 -12.1168092,-9.8812 -1.9252423,-3.75338 -1.8030675,-0.64412 -1.8030675,-45.886702 0,-45.432477 -0.1468827,-41.897011 1.9154489,-46.104855 1.5573487,-3.177511 4.9311511,-6.5535481 8.1387168,-8.1441081 4.13963,-2.0527492 0.694157,-1.9100583 46.12104,-1.9100583 45.176801,0 41.990341,-0.1226308 45.861601,1.7649824 4.92447,2.4011545 8.70817,7.19056 9.99749,12.654808 0.39818,1.687541 0.43009,5.460259 0.35916,42.465623 l -0.0778,40.61354 -0.74505,2.11667 c -1.00908,2.86677 -2.68712,5.47839 -4.85661,7.55857 -2.19207,2.10184 -4.2934,3.40224 -7.10088,4.39434 l -2.11412,0.74708 -40.878127,0.0523 c -39.151841,0.0501 -40.9551,0.0315 -42.700953,-0.44102 z M 62.668455,89.721725 c 6.894014,-0.844838 13.459652,-4.178675 18.289713,-9.28698 8.570431,-9.064138 10.661845,-22.463852 5.265695,-33.737347 -1.529792,-3.196003 -2.952922,-5.257324 -5.392687,-7.810995 -4.746778,-4.968398 -10.691333,-8.05232 -17.500162,-9.07875 -6.250649,-0.942284 -12.475453,0.108793 -18.25735,3.082811 -8.658055,4.453421 -14.552916,12.718107 -16.021964,22.463052 -0.942285,6.250649 0.108793,12.475453 3.082811,18.25735 5.778158,11.233525 17.945593,17.653523 30.533944,16.110859 z"
         style="fill:#cacaca;stroke-width:0.264583"
         d="m 16.66021,115.42321 c -5.338087,-1.44473 -9.5521811,-4.88131 -12.1168092,-9.8812 -1.9252423,-3.75338 -1.8030675,-0.64412 -1.8030675,-45.886702 0,-45.432477 -0.1468827,-41.897011 1.9154489,-46.104855 1.5573487,-3.177511 4.9311511,-6.5535481 8.1387168,-8.1441081 4.13963,-2.0527492 0.694157,-1.9100583 46.12104,-1.9100583 45.176801,0 41.990341,-0.1226308 45.861601,1.7649824 4.92447,2.4011545 8.70817,7.19056 9.99749,12.654808 0.39818,1.687541 0.43009,5.460259 0.35916,42.465623 l -0.0778,40.61354 -0.74505,2.11667 c -1.00908,2.86677 -2.68712,5.47839 -4.85661,7.55857 -2.19207,2.10184 -4.2934,3.40224 -7.10088,4.39434 l -2.11412,0.74708 -40.878127,0.0523 c -39.151841,0.0501 -40.9551,0.0315 -42.700953,-0.44102 z M 62.668455,89.721725 c 6.894014,-0.844838 13.459652,-4.178675 18.289713,-9.28698 8.570431,-9.064138 10.661845,-22.463852 5.265695,-33.737347 -1.529792,-3.196003 -2.952922,-5.257324 -5.392687,-7.810995 -4.746778,-4.968398 -10.691333,-8.05232 -17.500162,-9.07875 -6.250649,-0.942284 -12.475453,0.108793 -18.25735,3.082811 -8.658055,4.453421 -14.552916,12.718107 -16.021964,22.463052 -0.942285,6.250649 0.108793,12.475453 3.082811,18.25735 5.778158,11.233525 17.945593,17.653523 30.533944,16.110859 z"
         id="path1657" />
      <path
         inkscape:original-d="m 17.292416,115.53382 c -2.192819,-0.46961 -6.095123,-2.39997 -7.8099478,-3.86336 -2.1184843,-1.80787 -3.7743329,-3.89949 -4.8903053,-6.1773 -1.4253313,-2.90925 -1.8864272,-5.08867 -1.7945021,-8.481937 l 0.074964,-2.767182 10.8467062,10.850079 10.846706,10.85008 -2.776915,-0.021 c -1.527303,-0.0116 -3.550821,-0.18677 -4.496706,-0.38934 z M 104.0096,105.05435 114.92366,94.11371 V 59.606563 25.099418 L 104.15215,14.297852 93.380635,3.4962866 l 2.900159,0.00391 c 3.519003,0.00475 5.637176,0.4677262 8.456406,1.8483645 3.71351,1.8185846 6.55872,4.7002889 8.48987,8.5987659 2.09957,4.238459 1.97976,1.305874 1.89998,46.507318 l -0.0711,40.276015 -0.72083,2.11666 c -1.02895,3.02142 -2.42566,5.25931 -4.70506,7.5387 -3.73459,3.73459 -7.41364,5.27506 -13.094941,5.48305 l -3.439583,0.12591 z M 18.018714,101.72155 8.0319997,91.732246 V 59.984841 28.237438 l 9.8544053,-9.857034 9.854406,-9.8570344 h 31.620334 31.620336 l 9.986709,9.9893094 9.98672,9.989309 V 59.987402 91.472817 L 100.83333,101.59184 90.711741,111.71086 H 59.358586 28.005429 Z M 66.259848,89.143248 c 11.155142,-2.913483 19.112832,-10.86359 22.14855,-22.127447 0.614757,-2.281012 0.682686,-3.006942 0.682686,-7.295559 0,-4.288618 -0.06793,-5.014547 -0.682686,-7.29556 C 85.324944,40.983705 77.257341,33.048037 65.766037,30.152601 c -3.33485,-0.840275 -10.268647,-0.840275 -13.603498,0 -11.496973,2.896864 -19.688563,10.964139 -22.615283,22.272081 -0.816558,3.154923 -1.095437,8.207544 -0.629064,11.397096 1.926308,13.174098 11.668293,23.311174 24.780116,25.785086 3.232853,0.609968 9.309742,0.385686 12.56154,-0.463616 z M 2.7403333,22.269935 c 0,-3.562842 0.3811708,-5.310561 1.8151287,-8.322607 C 6.3794509,10.116016 9.448624,7.0949428 13.455958,5.1863187 16.287081,3.8379034 18.115091,3.466985 21.50287,3.5535334 L 24.440366,3.6285783 13.59035,14.475284 2.7403333,25.32199 Z"
         style="fill:#989898;stroke-width:0.264583"
         d="m 17.292416,115.53382 c -2.192819,-0.46961 -6.095123,-2.39997 -7.8099478,-3.86336 -2.1184843,-1.80787 -3.7743329,-3.89949 -4.8903053,-6.1773 -1.4253313,-2.90925 -1.8864272,-5.08867 -1.7945021,-8.481937 l 0.074964,-2.767182 10.8467062,10.850079 10.846706,10.85008 -2.776915,-0.021 c -1.527303,-0.0116 -3.550821,-0.18677 -4.496706,-0.38934 z M 104.0096,105.05435 114.92366,94.11371 V 59.606563 25.099418 L 104.15215,14.297852 93.380635,3.4962866 l 2.900159,0.00391 c 3.519003,0.00475 5.637176,0.4677262 8.456406,1.8483645 3.71351,1.8185846 6.55872,4.7002889 8.48987,8.5987659 2.09957,4.238459 1.97976,1.305874 1.89998,46.507318 l -0.0711,40.276015 -0.72083,2.11666 c -1.02895,3.02142 -2.42566,5.25931 -4.70506,7.5387 -3.73459,3.73459 -7.41364,5.27506 -13.094941,5.48305 l -3.439583,0.12591 z M 18.018714,101.72155 8.0319997,91.732246 V 59.984841 28.237438 l 9.8544053,-9.857034 9.854406,-9.8570344 h 31.620334 31.620336 l 9.986709,9.9893094 9.98672,9.989309 V 59.987402 91.472817 L 100.83333,101.59184 90.711741,111.71086 H 59.358586 28.005429 Z M 66.259848,89.143248 c 11.155142,-2.913483 19.112832,-10.86359 22.14855,-22.127447 0.614757,-2.281012 0.682686,-3.006942 0.682686,-7.295559 0,-4.288618 -0.06793,-5.014547 -0.682686,-7.29556 C 85.324944,40.983705 77.257341,33.048037 65.766037,30.152601 c -3.33485,-0.840275 -10.268647,-0.840275 -13.603498,0 -11.496973,2.896864 -19.688563,10.964139 -22.615283,22.272081 -0.816558,3.154923 -1.095437,8.207544 -0.629064,11.397096 1.926308,13.174098 11.668293,23.311174 24.780116,25.785086 3.232853,0.609968 9.309742,0.385686 12.56154,-0.463616 z M 2.7403333,22.269935 c 0,-3.562842 0.3811708,-5.310561 1.8151287,-8.322607 C 6.3794509,10.116016 9.448624,7.0949428 13.455958,5.1863187 16.287081,3.8379034 18.115091,3.466985 21.50287,3.5535334 L 24.440366,3.6285783 13.59035,14.475284 2.7403333,25.32199 Z"
         id="path1655" />
      <path
         inkscape:original-d="M 17.821582,115.54307 C 13.851343,114.73184 11.066299,113.21474 8.1399203,110.26916 4.4180649,106.5229 2.6391552,102.0483 2.7953857,96.825747 l 0.077239,-2.581991 10.8467063,10.850224 10.846706,10.85022 -2.512331,-0.0249 c -1.381783,-0.0137 -3.286238,-0.18299 -4.232124,-0.37626 z m 84.516428,-8.62664 c 4.93784,-5.0029 9.86188,-9.989159 10.94232,-11.080566 l 1.96444,-1.984374 -0.14845,3.307291 c -0.16588,3.695509 -0.61282,5.666489 -1.86092,8.206509 -1.83347,3.73132 -4.86988,6.80021 -8.45826,8.54873 -2.69048,1.311 -4.61531,1.7647 -8.242021,1.94274 l -3.174999,0.15586 z m -68.906012,4.61708 -5.688541,-0.0954 -9.855729,-9.85034 -9.8557283,-9.850331 V 59.987455 28.237438 l 9.8544053,-9.857034 9.854406,-9.8570344 h 31.620352 31.620353 l 9.854404,9.8570344 9.85441,9.857034 v 31.750017 31.750014 l -9.8885,9.885861 -9.88849,9.88585 -25.896401,0.0598 c -14.24302,0.0329 -28.456243,0.0169 -31.584941,-0.0355 z M 66.769496,89.103576 c 4.823709,-1.34321 9.497671,-3.96314 13.126928,-7.358133 3.77747,-3.533637 7.065611,-9.100238 8.495265,-14.381905 0.648314,-2.395112 0.709123,-3.041065 0.719524,-7.643296 0.01064,-4.704985 -0.03576,-5.196607 -0.724043,-7.672917 C 85.083239,40.160454 75.467831,31.514874 63.482464,29.654562 60.584673,29.20478 54.397435,29.49177 51.688247,30.201628 39.572734,33.376117 30.799709,42.999661 28.897321,55.202066 c -0.478378,3.068442 -0.140591,9.337209 0.656907,12.191092 3.074553,11.002425 11.229125,19.078185 22.001727,21.789082 3.083915,0.77606 3.28163,0.793011 8.202083,0.703283 3.89555,-0.07104 4.834533,-0.17576 7.011458,-0.781947 z M 104.20924,14.347039 93.362541,3.4962866 h 2.800736 c 1.908357,0 3.441901,0.1639822 4.813033,0.5146592 8.72298,2.2309613 14.56855,10.1815262 14.16499,19.2657802 l -0.0854,1.921066 z M 2.8100599,21.554098 C 2.9131587,19.069155 3.1029954,17.727703 3.530833,16.460869 5.5375902,10.518828 9.7404835,6.3185857 15.710626,4.2887569 17.000282,3.8502784 18.276387,3.6737242 20.864291,3.575727 L 24.303874,3.4454789 13.589474,14.186507 C 7.6965546,20.094073 2.8289551,24.927535 2.7725864,24.927535 c -0.056369,0 -0.039506,-1.518046 0.037474,-3.373437 z"
         style="fill:#707070;stroke-width:0.264583"
         d="M 17.821582,115.54307 C 13.851343,114.73184 11.066299,113.21474 8.1399203,110.26916 4.4180649,106.5229 2.6391552,102.0483 2.7953857,96.825747 l 0.077239,-2.581991 10.8467063,10.850224 10.846706,10.85022 -2.512331,-0.0249 c -1.381783,-0.0137 -3.286238,-0.18299 -4.232124,-0.37626 z m 84.516428,-8.62664 c 4.93784,-5.0029 9.86188,-9.989159 10.94232,-11.080566 l 1.96444,-1.984374 -0.14845,3.307291 c -0.16588,3.695509 -0.61282,5.666489 -1.86092,8.206509 -1.83347,3.73132 -4.86988,6.80021 -8.45826,8.54873 -2.69048,1.311 -4.61531,1.7647 -8.242021,1.94274 l -3.174999,0.15586 z m -68.906012,4.61708 -5.688541,-0.0954 -9.855729,-9.85034 -9.8557283,-9.850331 V 59.987455 28.237438 l 9.8544053,-9.857034 9.854406,-9.8570344 h 31.620352 31.620353 l 9.854404,9.8570344 9.85441,9.857034 v 31.750017 31.750014 l -9.8885,9.885861 -9.88849,9.88585 -25.896401,0.0598 c -14.24302,0.0329 -28.456243,0.0169 -31.584941,-0.0355 z M 66.769496,89.103576 c 4.823709,-1.34321 9.497671,-3.96314 13.126928,-7.358133 3.77747,-3.533637 7.065611,-9.100238 8.495265,-14.381905 0.648314,-2.395112 0.709123,-3.041065 0.719524,-7.643296 0.01064,-4.704985 -0.03576,-5.196607 -0.724043,-7.672917 C 85.083239,40.160454 75.467831,31.514874 63.482464,29.654562 60.584673,29.20478 54.397435,29.49177 51.688247,30.201628 39.572734,33.376117 30.799709,42.999661 28.897321,55.202066 c -0.478378,3.068442 -0.140591,9.337209 0.656907,12.191092 3.074553,11.002425 11.229125,19.078185 22.001727,21.789082 3.083915,0.77606 3.28163,0.793011 8.202083,0.703283 3.89555,-0.07104 4.834533,-0.17576 7.011458,-0.781947 z M 104.20924,14.347039 93.362541,3.4962866 h 2.800736 c 1.908357,0 3.441901,0.1639822 4.813033,0.5146592 8.72298,2.2309613 14.56855,10.1815262 14.16499,19.2657802 l -0.0854,1.921066 z M 2.8100599,21.554098 C 2.9131587,19.069155 3.1029954,17.727703 3.530833,16.460869 5.5375902,10.518828 9.7404835,6.3185857 15.710626,4.2887569 17.000282,3.8502784 18.276387,3.6737242 20.864291,3.575727 L 24.303874,3.4454789 13.589474,14.186507 C 7.6965546,20.094073 2.8289551,24.927535 2.7725864,24.927535 c -0.056369,0 -0.039506,-1.518046 0.037474,-3.373437 z"
         id="path1653" />
      <path
         inkscape:original-d="M 18.016086,115.52528 C 9.0278288,113.90026 2.4917193,105.87042 2.7949317,96.825554 l 0.077693,-2.317601 10.7143993,10.718117 10.7144,10.71813 -2.115442,-0.0237 c -1.163493,-0.0131 -3.039946,-0.19088 -4.169896,-0.39517 z M 104.20683,105.126 c 5.96568,-5.982699 10.89523,-10.877635 10.95453,-10.877635 0.25183,0 -0.25605,6.088145 -0.62904,7.540625 -1.33168,5.18571 -4.98111,9.6745 -9.79512,12.04801 -2.79074,1.37595 -4.65798,1.8269 -8.334372,2.01279 l -3.042708,0.15386 z M 17.886405,101.58925 8.0319997,91.732212 V 60.114505 28.496799 L 18.021309,18.510084 28.010618,8.5233696 H 59.424015 90.83741 l 9.91781,9.9880204 9.91781,9.98802 0.009,31.619029 0.009,31.61903 -9.85704,9.854401 -9.857032,9.85441 H 59.358533 27.740811 Z M 62.006996,90.0062 c 6.843456,-0.719439 12.896606,-3.498879 17.835866,-8.189735 12.266339,-11.649445 12.808116,-30.770561 1.21765,-42.974797 -12.110524,-12.751832 -32.081924,-12.751832 -44.192447,0 -11.59887,12.213084 -11.057582,31.316907 1.217649,42.974797 5.514367,5.23704 12.631076,8.163882 20.481699,8.423372 0.509323,0.01683 2.057136,-0.0883 3.439583,-0.233637 z M 104.20924,14.34755 93.362541,3.4962866 h 2.592392 c 4.394187,0 8.017217,1.1280625 11.418717,3.5553217 3.01514,2.1515605 5.58433,5.5985807 6.72024,9.0163847 0.65669,1.975885 1.15213,5.586061 1.04381,7.606119 l -0.0817,1.524701 z M 2.8005739,21.68639 C 2.9054847,19.104181 3.0776661,18.014918 3.6474905,16.328578 4.6035002,13.49936 6.2801012,10.873866 8.4742835,8.770002 12.161149,5.2348985 15.707415,3.7612408 20.996582,3.5663373 L 24.303874,3.4444651 13.589474,14.186 C 7.6965546,20.093844 2.8286836,24.927535 2.7719832,24.927535 c -0.0567,0 -0.043835,-1.458515 0.028591,-3.241145 z"
         style="fill:#565656;stroke-width:0.264583"
         d="M 18.016086,115.52528 C 9.0278288,113.90026 2.4917193,105.87042 2.7949317,96.825554 l 0.077693,-2.317601 10.7143993,10.718117 10.7144,10.71813 -2.115442,-0.0237 c -1.163493,-0.0131 -3.039946,-0.19088 -4.169896,-0.39517 z M 104.20683,105.126 c 5.96568,-5.982699 10.89523,-10.877635 10.95453,-10.877635 0.25183,0 -0.25605,6.088145 -0.62904,7.540625 -1.33168,5.18571 -4.98111,9.6745 -9.79512,12.04801 -2.79074,1.37595 -4.65798,1.8269 -8.334372,2.01279 l -3.042708,0.15386 z M 17.886405,101.58925 8.0319997,91.732212 V 60.114505 28.496799 L 18.021309,18.510084 28.010618,8.5233696 H 59.424015 90.83741 l 9.91781,9.9880204 9.91781,9.98802 0.009,31.619029 0.009,31.61903 -9.85704,9.854401 -9.857032,9.85441 H 59.358533 27.740811 Z M 62.006996,90.0062 c 6.843456,-0.719439 12.896606,-3.498879 17.835866,-8.189735 12.266339,-11.649445 12.808116,-30.770561 1.21765,-42.974797 -12.110524,-12.751832 -32.081924,-12.751832 -44.192447,0 -11.59887,12.213084 -11.057582,31.316907 1.217649,42.974797 5.514367,5.23704 12.631076,8.163882 20.481699,8.423372 0.509323,0.01683 2.057136,-0.0883 3.439583,-0.233637 z M 104.20924,14.34755 93.362541,3.4962866 h 2.592392 c 4.394187,0 8.017217,1.1280625 11.418717,3.5553217 3.01514,2.1515605 5.58433,5.5985807 6.72024,9.0163847 0.65669,1.975885 1.15213,5.586061 1.04381,7.606119 l -0.0817,1.524701 z M 2.8005739,21.68639 C 2.9054847,19.104181 3.0776661,18.014918 3.6474905,16.328578 4.6035002,13.49936 6.2801012,10.873866 8.4742835,8.770002 12.161149,5.2348985 15.707415,3.7612408 20.996582,3.5663373 L 24.303874,3.4444651 13.589474,14.186 C 7.6965546,20.093844 2.8286836,24.927535 2.7719832,24.927535 c -0.0567,0 -0.043835,-1.458515 0.028591,-3.241145 z"
         id="path1651" />
      <path
         inkscape:original-d="m 19.409082,115.68644 c -5.905069,-0.62708 -11.2939508,-4.16228 -14.2613877,-9.35571 -1.4681047,-2.56939 -2.1990682,-5.28249 -2.3463595,-8.708928 -0.073502,-1.70987 -0.086979,-3.108854 -0.02995,-3.108854 0.057029,0 4.9246183,4.822031 10.8168642,10.715622 l 10.713175,10.71563 -1.586275,-0.0376 c -0.872451,-0.0207 -2.360181,-0.11975 -3.306067,-0.22019 z m 84.798958,-10.56534 10.84791,-10.881491 0.0851,0.980358 c 0.15111,1.740948 -0.46933,6.188383 -1.12722,8.080163 -2.03948,5.86452 -7.27367,10.61145 -13.2132,11.98316 -0.890822,0.20574 -2.929365,0.45174 -4.530094,0.54668 l -2.910416,0.17262 z M 18.018714,101.45697 8.0319997,91.467663 V 59.984841 28.502022 l 9.8544053,-9.857035 9.854406,-9.857034 h 31.620352 31.620353 l 9.854404,9.857034 9.85441,9.857035 v 31.485414 31.485415 l -9.98931,9.986709 -9.989311,9.98672 H 59.358568 28.005429 Z M 64.58734,94.378368 c 12.759472,-2.069381 23.441812,-11.22104 27.573328,-23.622319 1.33958,-4.020923 1.705303,-6.385081 1.707184,-11.035807 0.0019,-4.731031 -0.3943,-7.309099 -1.741969,-11.334557 C 88.207508,36.681562 78.028937,27.648402 65.996011,25.196248 63.059811,24.597889 56.042918,24.454015 53.099053,24.93181 40.496275,26.977264 29.604417,36.357484 25.637228,48.582318 c -1.37493,4.236826 -1.598979,5.845538 -1.588057,11.402507 0.009,4.561414 0.07603,5.29114 0.724027,7.877688 1.586077,6.331031 4.455696,11.539867 8.893758,16.143654 5.446114,5.649481 11.585503,8.921816 19.476499,10.381101 2.570377,0.47534 8.486505,0.470739 11.443885,-0.0089 z M 104.34033,14.281374 93.624703,3.4305433 l 3.175,0.1301921 c 3.506407,0.1437816 6.178167,0.8590712 8.795997,2.3548832 4.28239,2.4469312 7.45132,6.5406514 8.78298,11.3461134 0.45325,1.635626 1.08202,7.985979 0.78225,7.900429 -0.0577,-0.01648 -4.92701,-4.912831 -10.8206,-10.880787 z M 2.7403333,22.732344 c 0,-3.267194 0.6172496,-5.971881 2.0321212,-8.904425 C 5.7867488,11.725634 6.3447518,10.961462 8.2751303,9.0310836 10.203917,7.1022971 10.971415,6.5416139 13.071966,5.5268341 16.076408,4.0753829 18.938968,3.4415794 21.996897,3.5507526 L 24.176786,3.6285783 13.45856,14.342978 2.7403333,25.057377 Z"
         style="fill:#3e3e3e;stroke-width:0.264583"
         d="m 19.409082,115.68644 c -5.905069,-0.62708 -11.2939508,-4.16228 -14.2613877,-9.35571 -1.4681047,-2.56939 -2.1990682,-5.28249 -2.3463595,-8.708928 -0.073502,-1.70987 -0.086979,-3.108854 -0.02995,-3.108854 0.057029,0 4.9246183,4.822031 10.8168642,10.715622 l 10.713175,10.71563 -1.586275,-0.0376 c -0.872451,-0.0207 -2.360181,-0.11975 -3.306067,-0.22019 z m 84.798958,-10.56534 10.84791,-10.881491 0.0851,0.980358 c 0.15111,1.740948 -0.46933,6.188383 -1.12722,8.080163 -2.03948,5.86452 -7.27367,10.61145 -13.2132,11.98316 -0.890822,0.20574 -2.929365,0.45174 -4.530094,0.54668 l -2.910416,0.17262 z M 18.018714,101.45697 8.0319997,91.467663 V 59.984841 28.502022 l 9.8544053,-9.857035 9.854406,-9.857034 h 31.620352 31.620353 l 9.854404,9.857034 9.85441,9.857035 v 31.485414 31.485415 l -9.98931,9.986709 -9.989311,9.98672 H 59.358568 28.005429 Z M 64.58734,94.378368 c 12.759472,-2.069381 23.441812,-11.22104 27.573328,-23.622319 1.33958,-4.020923 1.705303,-6.385081 1.707184,-11.035807 0.0019,-4.731031 -0.3943,-7.309099 -1.741969,-11.334557 C 88.207508,36.681562 78.028937,27.648402 65.996011,25.196248 63.059811,24.597889 56.042918,24.454015 53.099053,24.93181 40.496275,26.977264 29.604417,36.357484 25.637228,48.582318 c -1.37493,4.236826 -1.598979,5.845538 -1.588057,11.402507 0.009,4.561414 0.07603,5.29114 0.724027,7.877688 1.586077,6.331031 4.455696,11.539867 8.893758,16.143654 5.446114,5.649481 11.585503,8.921816 19.476499,10.381101 2.570377,0.47534 8.486505,0.470739 11.443885,-0.0089 z M 104.34033,14.281374 93.624703,3.4305433 l 3.175,0.1301921 c 3.506407,0.1437816 6.178167,0.8590712 8.795997,2.3548832 4.28239,2.4469312 7.45132,6.5406514 8.78298,11.3461134 0.45325,1.635626 1.08202,7.985979 0.78225,7.900429 -0.0577,-0.01648 -4.92701,-4.912831 -10.8206,-10.880787 z M 2.7403333,22.732344 c 0,-3.267194 0.6172496,-5.971881 2.0321212,-8.904425 C 5.7867488,11.725634 6.3447518,10.961462 8.2751303,9.0310836 10.203917,7.1022971 10.971415,6.5416139 13.071966,5.5268341 16.076408,4.0753829 18.938968,3.4415794 21.996897,3.5507526 L 24.176786,3.6285783 13.45856,14.342978 2.7403333,25.057377 Z"
         id="path1649" />
    </g>
  </g>
</svg>
